<svg width="14" height="14" viewBox="0 0 14 14" version="1.1" xmlns="http://www.w3.org/2000/svg" xmlns:xlink="http://www.w3.org/1999/xlink">
<g id="Canvas" fill="none">
<g id="Union">
<path d="M 8.25642 7.17977L 13.2821 2.15398C 13.6786 1.75746 13.6786 1.1146 13.2821 0.718073C 12.8856 0.321501 12.2427 0.321486 11.8461 0.718039L 6.82055 5.74373L 2.15389 1.07713C 1.75734 0.68059 1.11441 0.680611 0.717894 1.07718C 0.321405 1.47372 0.321425 2.11658 0.717938 2.5131L 5.38463 7.17977L 0.717934 11.8465C 0.321441 12.243 0.321469 12.8858 0.717998 13.2823C 1.11448 13.6787 1.75723 13.6786 2.15367 13.2822L 6.82044 8.61538L 11.4868 13.282C 11.8834 13.6785 12.5263 13.6785 12.9228 13.2819C 13.3193 12.8854 13.3193 12.2425 12.9228 11.846L 8.25642 7.17977Z" fill="#6E7984"/>
</g>
</g>
</svg>

